<?xml version="1.0" encoding="UTF-8" standalone="no"?>
<svg viewBox="0 0 800 200" xmlns="http://www.w3.org/2000/svg">
  <!-- Gradient Background -->
  <defs>
    <linearGradient id="headerGradient" x1="0%" y1="0%" x2="100%" y2="0%">
      <stop offset="0%" stop-color="#2C3E50" />
      <stop offset="100%" stop-color="#4CA1AF" />
    </linearGradient>
    <linearGradient id="lifeLineGradient" x1="0%" y1="0%" x2="100%" y2="0%">
      <stop offset="0%" stop-color="#FF5F6D" />
      <stop offset="100%" stop-color="#FFC371" />
    </linearGradient>
  </defs>
  
  <!-- Background Rectangle -->
  <rect width="800" height="200" rx="10" ry="10" fill="url(#headerGradient)" />
  
  <!-- Header Title -->
  <text x="400" y="60" font-family="Arial, sans-serif" font-size="28" font-weight="bold" fill="#FFFFFF" text-anchor="middle">AI-based Life Management System</text>
  <text x="400" y="90" font-family="Arial, sans-serif" font-size="18" fill="#E0E0E0" text-anchor="middle">Aging Preparation Decision Support System</text>
  
  <!-- Heartbeat Line -->
  <path d="M 50,140 L 120,140 L 140,100 L 160,180 L 180,120 L 200,140 L 750,140" 
        stroke="url(#lifeLineGradient)" stroke-width="4" fill="none" />
  
  <!-- Icons -->
  <g transform="translate(250, 140)">
    <circle cx="0" cy="-40" r="25" fill="#3498DB" opacity="0.9" />
    <text x="0" y="-35" font-family="Arial, sans-serif" font-size="16" fill="#FFFFFF" text-anchor="middle">🧠</text>
  </g>
  
  <g transform="translate(350, 140)">
    <circle cx="0" cy="-40" r="25" fill="#9B59B6" opacity="0.9" />
    <text x="0" y="-35" font-family="Arial, sans-serif" font-size="16" fill="#FFFFFF" text-anchor="middle">💓</text>
  </g>
  
  <g transform="translate(450, 140)">
    <circle cx="0" cy="-40" r="25" fill="#2ECC71" opacity="0.9" />
    <text x="0" y="-35" font-family="Arial, sans-serif" font-size="16" fill="#FFFFFF" text-anchor="middle">📊</text>
  </g>
  
  <g transform="translate(550, 140)">
    <circle cx="0" cy="-40" r="25" fill="#F1C40F" opacity="0.9" />
    <text x="0" y="-35" font-family="Arial, sans-serif" font-size="16" fill="#FFFFFF" text-anchor="middle">🔬</text>
  </g>
  
  <!-- Bottom Text -->
  <text x="400" y="180" font-family="Arial, sans-serif" font-size="14" fill="#FFFFFF" text-anchor="middle">Powered by Ucaretron Inc. Patented Technology</text>
</svg>
